<mxfile host="app.diagrams.net" modified="2021-05-23T08:58:43.935Z" agent="5.0 (Macintosh; Intel Mac OS X 10_15_7) AppleWebKit/537.36 (KHTML, like Gecko) Chrome/90.0.4430.212 Safari/537.36" etag="b1Wr4BUGUTTc_c77JAd5" version="14.7.0" type="github">
  <diagram id="QTwFVN-7wSwu2lXp2QQB" name="Page-1">
    <mxGraphModel dx="815" dy="403" grid="1" gridSize="10" guides="1" tooltips="1" connect="1" arrows="1" fold="1" page="1" pageScale="1" pageWidth="1100" pageHeight="850" math="0" shadow="0">
      <root>
        <mxCell id="0" />
        <mxCell id="1" parent="0" />
        <mxCell id="jzWtG_Kv2Fcp-4DRaKRb-1" value="" style="endArrow=classic;html=1;" edge="1" parent="1">
          <mxGeometry width="50" height="50" relative="1" as="geometry">
            <mxPoint x="280" y="560" as="sourcePoint" />
            <mxPoint x="600" y="560" as="targetPoint" />
          </mxGeometry>
        </mxCell>
        <mxCell id="jzWtG_Kv2Fcp-4DRaKRb-2" value="" style="endArrow=classic;html=1;" edge="1" parent="1">
          <mxGeometry width="50" height="50" relative="1" as="geometry">
            <mxPoint x="280" y="560" as="sourcePoint" />
            <mxPoint x="280" y="290" as="targetPoint" />
          </mxGeometry>
        </mxCell>
        <mxCell id="jzWtG_Kv2Fcp-4DRaKRb-3" value="" style="curved=1;endArrow=classic;html=1;strokeColor=none;" edge="1" parent="1">
          <mxGeometry width="50" height="50" relative="1" as="geometry">
            <mxPoint x="390" y="500" as="sourcePoint" />
            <mxPoint x="310" y="350" as="targetPoint" />
            <Array as="points">
              <mxPoint x="440" y="500" />
              <mxPoint x="390" y="450" />
            </Array>
          </mxGeometry>
        </mxCell>
        <mxCell id="jzWtG_Kv2Fcp-4DRaKRb-4" value="" style="curved=1;endArrow=none;html=1;endFill=0;" edge="1" parent="1">
          <mxGeometry width="50" height="50" relative="1" as="geometry">
            <mxPoint x="630" y="530" as="sourcePoint" />
            <mxPoint x="320" y="315" as="targetPoint" />
            <Array as="points">
              <mxPoint x="540" y="520" />
              <mxPoint x="460" y="510" />
              <mxPoint x="380" y="485" />
              <mxPoint x="350" y="450" />
              <mxPoint x="330" y="415" />
            </Array>
          </mxGeometry>
        </mxCell>
      </root>
    </mxGraphModel>
  </diagram>
</mxfile>
